<svg xmlns="http://www.w3.org/2000/svg" width="139" height="36" viewBox="0 0 139 36">
  <g id="Group_1" data-name="Group 1" transform="translate(927 11086.229)">
    <rect id="Rectangle_6" data-name="Rectangle 6" width="139" height="36" transform="translate(-927 -11086.229)" fill="rgba(255,255,255,0)"/>
    <path id="Path_1" data-name="Path 1" d="M4.295.7l-.414.66-.2,1.174-.2,1.174-.151.514-.151.514H6.749V5.907H2.934v.255L1.467,13.1,0,20.03v.28l2.272-.086,2.272-.086.9-4.255.9-4.255.153-.44.153-.44L7.45,15l.8,4.255.151.514.152.514h3.684l.442-.514.442-.514,2.44-4.035L18,11.188l.072.074.072.074L17.295,15.3l-.847,3.961-.008.514-.008.514,10.491,0,10.491,0,.32-.215.32-.216.361-1.864.361-1.864.158-.41.158-.411h-9.8L29.5,14.05l.207-1.247.13-.22.13-.22h6.927l.334-1.663.334-1.663V8.254H30.8l.181-1.134.181-1.134L30.4,5.792,29.623,5.6l-1.9.2-1.9.2-.14.619-.14.619-.743,3.521-.743,3.521-.159.514-.159.514H22.008v-.874l1.32-6.268,1.32-6.268V.96L24.188.5,23.727.038h-3.67l-.6.66-.6.66-3.3,5.355-3.3,5.355h-.38L10.9,6.713,9.919,1.358,9.5.7,9.083.038H4.709ZM30.155.33l-.8.242-.969.6-.969.6-.649,1.155-.649,1.155v.654H41.071l.181-.807.181-.807L41.7,2.092l.264-1.027V.551l0-.514-5.5.025-5.5.025ZM44.663.288,44.282.53l-.423,1.588-.423,1.588,0,.514,0,.514h3.521v.88H43.176l-.152.514-.152.514-1.335,6.386L40.2,19.412v.874h4.088l.262-.514.262-.514.837-4.023.837-4.023.159.158.159.157.88,4.305.88,4.305,1.448.092,1.448.092.632-.159L52.724,20l2.6-4.3,2.6-4.3.087.263.088.263-.862,3.944-.862,3.944.143.232.143.232,10.18-.006,10.18-.006,1.2-.543,1.2-.543.459-.991.459-.991.652-3.039.652-3.039-.318-.7-.318-.7.558-.957.558-.957.462-2.262.462-2.262V1.847l-.182-.475L82.68.9,81.85.467l-.83-.429H67.24L66.9,1.725l-.339,1.687-.154.66-.154.66H77.469v.62l-.328,1.3-.328,1.3H70.936L71.1,6.934l.167-1.027H66.064l-.151.514-.151.514-.749,3.6-.749,3.6v.284h5.247l.246-1.247L70,11.922l3-.084,3-.084-.007.524-.007.524-.265,1.143-.265,1.144-.388.246-.388.246-6.382,0-6.382,0,0-.22,0-.22,1.449-6.9,1.448-6.9L64.39.7l-.433-.66h-3.8l-.514.514-.514.514-3.485,5.66-3.485,5.66L52.08,12.3,52,12.216,50.931,6.494,49.86.771,49.376.4,48.893.038l-1.925,0-1.925,0Zm45.571.05L89.06.576l-.774.3-.774.3-1.033.908-1.034.907-.3.873-.3.873H100l.472-2.09.472-2.09V.038L96.176.07,91.408.1Zm12.914.047-.141.386L102.6,2.752l-.408,1.981h11.126l-.194.954-.194.954-.281,1.1-.281,1.1h-5.784l.255-1.1.256-1.1.007-.367.007-.367H101.93l-1.392,6.676-1.392,6.676L99,19.772l-.148.514h4.956l.288-.367.288-.367.19-1.027.19-1.027.468-2.127.468-2.127h6.114l-.15.66-.151.66-.573,2.641-.574,2.641.234.234.233.234,10.549-.087,10.549-.087.808-.529.807-.53.572-.938.572-.938V15.59H116.744l.2-1.87.2-1.87L116.8,11.2l-.349-.652.606-.645.606-.645.593-2.88.593-2.881V1.3l-.617-.559L117.61.185,110.449.092,103.288,0Zm20.109.166-1.017.513-.519.9-.519.9-.591,2.874-.591,2.874,0,1.068,0,1.068.215.323.216.323.641.337.641.337h8.6l-.2,1.174-.2,1.174h5.216l.352-1.7.352-1.7V9.177l-.773-.608-.773-.608h-8.724V6.581l.322-.924.322-.924h10.486l.265-.514.265-.514.205-1.174.205-1.174.158-.66.158-.66H124.273ZM83.137,12.876l-1.476,6.969.2.225.2.225,7.3-.079,7.3-.079.344-1.188.344-1.188.208-1.233.208-1.233H87.993l.145-.514.145-.514.192-.954.192-.954H95.64l.281-1.1.281-1.1.194-.954.194-.954H89.519l.113-.367.113-.367.177-.807.177-.807H84.613Z" transform="translate(-926.491 -11078.391)" fill-rule="evenodd"/>
  </g>
</svg>
