<svg xmlns="http://www.w3.org/2000/svg" width="350" height="87" viewBox="0 0 350 87">
  <g id="Group_11326" data-name="Group 11326" transform="translate(927 11086.229)">
    <rect id="Rectangle_6" data-name="Rectangle 6" width="349.801" height="87" transform="translate(-927 -11086.229)" fill="rgba(255,255,255,0)"/>
    <path id="Path_1" data-name="Path 1" d="M10.893,1.774,9.843,3.452,9.348,6.434l-.5,2.983-.383,1.3-.383,1.3H17.12v2.983H7.443v.648L3.722,33.277,0,50.9v.711l5.762-.218,5.762-.218,2.29-10.812L16.1,29.549l.387-1.118.387-1.118L18.9,38.124l2.019,10.812.384,1.3.385,1.3h9.345l1.122-1.3,1.121-1.3,6.188-10.254L45.65,28.428l.184.187.184.188L43.87,38.869,41.722,48.935l-.02,1.3-.019,1.3,26.61-.011,26.61-.012.811-.547.811-.548.916-4.736.916-4.736.4-1.042.4-1.043H74.3l.523-3.169.524-3.169.33-.559.33-.559H93.581l.847-4.226.847-4.226V20.974H78.138l.46-2.882.46-2.882L77.1,14.718l-1.958-.493-4.831.5-4.832.5-.356,1.574-.355,1.573-1.884,8.948L61,36.259l-.4,1.3-.4,1.3H55.825v-2.22l3.35-15.927L62.524,4.8V2.44L61.355,1.268,60.185.1h-9.31L49.362,1.774,47.85,3.452,39.48,17.059,31.109,30.667h-.963L27.653,17.059,25.159,3.452,24.1,1.774,23.04.1h-11.1Zm65.6-.935-2.037.614L72,2.974,69.539,4.5,67.892,7.431l-1.646,2.934v1.661h37.933l.459-2.05.459-2.05.668-2.61.668-2.61,0-1.3,0-1.3L92.484.16,78.528.224Zm36.8-.106-.966.614-1.072,4.035L110.18,9.417l-.009,1.3-.009,1.3h8.932v2.237h-9.576l-.386,1.3-.386,1.3L105.36,33.1l-3.386,16.226v2.22h10.369l.664-1.3.664-1.3,2.123-10.221,2.123-10.221.4.4.4.4,2.233,10.939,2.233,10.94,3.673.233,3.672.233,1.6-.4,1.6-.4,6.6-10.921,6.6-10.921.222.667.223.668L145.2,40.346l-2.185,10.021.363.589.363.589,25.822-.016,25.822-.016,3.034-1.38,3.034-1.38,1.164-2.518,1.165-2.518,1.653-7.723,1.653-7.723-.808-1.775-.807-1.775,1.414-2.432,1.414-2.432,1.171-5.747,1.171-5.747V4.692l-.462-1.207-.462-1.207-2.106-1.091L205.511.1H170.559l-.86,4.287-.859,4.287-.391,1.678-.391,1.678h28.446V13.6l-.833,3.313-.832,3.313H179.935l.423-2.61.423-2.61h-13.2l-.384,1.3-.383,1.3-1.9,9.146-1.9,9.146v.722h13.31l.624-3.169.624-3.169,7.608-.213,7.607-.213-.018,1.331-.018,1.331-.673,2.9-.672,2.906-.985.625-.984.625-16.189.012-16.189.011.01-.559.01-.559,3.675-17.522,3.674-17.522-1.1-1.678L162.231.1h-9.642l-1.3,1.307-1.3,1.307-8.84,14.381L132.3,31.473l-.2-.217-.2-.216L129.189,16.5,126.473,1.96l-1.227-.932L124.02.1l-4.882.011-4.882.012ZM228.884.861l-2.977.6-1.964.758-1.964.758-2.622,2.306-2.622,2.306-.772,2.218-.772,2.218h38.467l1.2-5.311,1.2-5.31V.1l-12.1.082-12.1.081ZM261.64.981l-.357.98-1.036,5.033-1.036,5.033h28.222l-.493,2.423-.492,2.423-.712,2.8-.712,2.8H270.351l.648-2.8.648-2.8.018-.932.018-.932H258.552l-3.53,16.963-3.53,16.963-.375,1.3-.376,1.3h12.572l.731-.932.731-.932.482-2.61.482-2.61,1.186-5.406,1.186-5.406h15.51l-.381,1.678-.382,1.678L281.4,43.716l-1.455,6.711.592.6.592.594,26.758-.221,26.757-.222,2.048-1.345,2.048-1.346,1.451-2.382,1.451-2.383,0-2.05,0-2.05H296.128l.508-4.752.508-4.753-.885-1.656-.884-1.656,1.537-1.64,1.538-1.64,1.5-7.319,1.5-7.32V3.31l-1.565-1.42L298.326.469,280.161.235,262,0Zm51.007.422-2.58,1.3L308.75,4.993l-1.317,2.286-1.5,7.3-1.5,7.3.011,2.714.012,2.714.546.82.547.821,1.626.857,1.626.857h21.814l-.5,2.983-.5,2.983h13.231l.893-4.332.893-4.332V23.319l-1.961-1.545-1.961-1.546H318.576V16.722l.817-2.348.817-2.348h26.6l.672-1.3.673-1.3.521-2.983.521-2.983.4-1.678L350,.1H315.227ZM210.883,32.718l-3.744,17.709.5.573.5.573,18.525-.2,18.526-.2.872-3.018.872-3.018L247.467,42,248,38.869H223.2l.367-1.3.367-1.3.487-2.423.487-2.423H242.6l.712-2.8.712-2.8.492-2.423.493-2.423H227.07l.287-.932.287-.932.449-2.05.448-2.05H214.627Z" transform="translate(-927 -11068.829)" fill="#fff" fill-rule="evenodd"/>
  </g>
</svg>
